<svg width="400" height="800" viewBox="0 0 400 800" fill="none" xmlns="http://www.w3.org/2000/svg">
<g opacity="0.8">
<g opacity="0.8">
<path d="M394.699 9.99251C396.955 5.7413 403.045 5.7413 405.3 9.99252L568.531 317.719C570.651 321.715 567.754 326.53 563.231 326.53L236.769 326.53C232.246 326.53 229.349 321.715 231.469 317.719L394.699 9.99251Z" fill="#CFC0DE"/>
<path d="M394.699 9.99251C396.955 5.7413 403.045 5.7413 405.3 9.99252L568.531 317.719C570.651 321.715 567.754 326.53 563.231 326.53L236.769 326.53C232.246 326.53 229.349 321.715 231.469 317.719L394.699 9.99251Z" fill="url(#paint0_linear)"/>
</g>
<g opacity="0.8">
<path d="M194.699 374.619C196.955 370.367 203.045 370.367 205.3 374.619L368.531 682.345C370.651 686.341 367.754 691.156 363.231 691.156L36.7694 691.156C32.2458 691.156 29.3492 686.341 31.4689 682.345L194.699 374.619Z" fill="#CFC0DE"/>
<path d="M194.699 374.619C196.955 370.367 203.045 370.367 205.3 374.619L368.531 682.345C370.651 686.341 367.754 691.156 363.231 691.156L36.7694 691.156C32.2458 691.156 29.3492 686.341 31.4689 682.345L194.699 374.619Z" fill="url(#paint1_linear)"/>
</g>
<g opacity="0.8">
<path d="M405.3 675.721C403.045 679.972 396.955 679.972 394.7 675.721L231.469 367.995C229.349 363.999 232.246 359.183 236.769 359.183L563.231 359.183C567.754 359.183 570.651 363.999 568.531 367.995L405.3 675.721Z" fill="#CFC0DE"/>
<path d="M405.3 675.721C403.045 679.972 396.955 679.972 394.7 675.721L231.469 367.995C229.349 363.999 232.246 359.183 236.769 359.183L563.231 359.183C567.754 359.183 570.651 363.999 568.531 367.995L405.3 675.721Z" fill="url(#paint2_linear)"/>
</g>
</g>
<defs>
<linearGradient id="paint0_linear" x1="400" y1="-6.03494e-05" x2="400" y2="435.374" gradientUnits="userSpaceOnUse">
<stop stop-color="#9C60B8"/>
<stop offset="1" stop-color="white" stop-opacity="0"/>
</linearGradient>
<linearGradient id="paint1_linear" x1="200" y1="364.626" x2="200" y2="800" gradientUnits="userSpaceOnUse">
<stop stop-color="#9C60B8"/>
<stop offset="1" stop-color="white" stop-opacity="0"/>
</linearGradient>
<linearGradient id="paint2_linear" x1="400" y1="685.714" x2="400" y2="359.183" gradientUnits="userSpaceOnUse">
<stop stop-color="#9C60B8"/>
<stop offset="1" stop-color="white" stop-opacity="0"/>
</linearGradient>
</defs>
</svg>
