<svg width="50" height="50" viewBox="0 0 50 50" fill="none" xmlns="http://www.w3.org/2000/svg">
<g opacity="0.8">
<path d="M36.6166 24.4545C36.9924 23.746 38.0076 23.746 38.3834 24.4545L47.5463 41.7286C47.8996 42.3947 47.4168 43.1972 46.6629 43.1972L28.3371 43.1972C27.5832 43.1972 27.1004 42.3947 27.4537 41.7286L36.6166 24.4545Z" fill="#CFC0DE"/>
<path d="M36.6166 24.4545C36.9924 23.746 38.0076 23.746 38.3834 24.4545L47.5463 41.7286C47.8996 42.3947 47.4168 43.1972 46.6629 43.1972L28.3371 43.1972C27.5832 43.1972 27.1004 42.3947 27.4537 41.7286L36.6166 24.4545Z" fill="url(#paint0_linear)"/>
</g>
<g opacity="0.8">
<path d="M24.1166 1.66537C24.4924 0.956835 25.5076 0.956832 25.8834 1.66537L35.0463 18.9395C35.3996 19.6055 34.9168 20.4081 34.1629 20.4081L15.8371 20.4081C15.0832 20.4081 14.6004 19.6055 14.9537 18.9395L24.1166 1.66537Z" fill="#CFC0DE"/>
<path d="M24.1166 1.66537C24.4924 0.956835 25.5076 0.956832 25.8834 1.66537L35.0463 18.9395C35.3996 19.6055 34.9168 20.4081 34.1629 20.4081L15.8371 20.4081C15.0832 20.4081 14.6004 19.6055 14.9537 18.9395L24.1166 1.66537Z" fill="url(#paint1_linear)"/>
</g>
<g opacity="0.8">
<path d="M11.6166 24.4546C11.9924 23.746 13.0076 23.746 13.3834 24.4546L22.5463 41.7287C22.8996 42.3947 22.4168 43.1973 21.6629 43.1973L3.3371 43.1973C2.58317 43.1973 2.1004 42.3947 2.45369 41.7287L11.6166 24.4546Z" fill="#CFC0DE"/>
<path d="M11.6166 24.4546C11.9924 23.746 13.0076 23.746 13.3834 24.4546L22.5463 41.7287C22.8996 42.3947 22.4168 43.1973 21.6629 43.1973L3.3371 43.1973C2.58317 43.1973 2.1004 42.3947 2.45369 41.7287L11.6166 24.4546Z" fill="url(#paint2_linear)"/>
</g>
<g opacity="0.8">
<path d="M25.8834 41.1917C25.5076 41.9002 24.4924 41.9002 24.1166 41.1917L14.9537 23.9175C14.6004 23.2515 15.0832 22.4489 15.8371 22.4489L34.1629 22.4489C34.9168 22.4489 35.3996 23.2515 35.0463 23.9175L25.8834 41.1917Z" fill="#CFC0DE"/>
<path d="M25.8834 41.1917C25.5076 41.9002 24.4924 41.9002 24.1166 41.1917L14.9537 23.9175C14.6004 23.2515 15.0832 22.4489 15.8371 22.4489L34.1629 22.4489C34.9168 22.4489 35.3996 23.2515 35.0463 23.9175L25.8834 41.1917Z" fill="url(#paint3_linear)"/>
</g>
<defs>
<linearGradient id="paint0_linear" x1="37.5" y1="22.7891" x2="37.5" y2="50" gradientUnits="userSpaceOnUse">
<stop stop-color="#9C60B8"/>
<stop offset="1" stop-color="white" stop-opacity="0"/>
</linearGradient>
<linearGradient id="paint1_linear" x1="25" y1="-6.03494e-05" x2="25" y2="27.2108" gradientUnits="userSpaceOnUse">
<stop stop-color="#9C60B8"/>
<stop offset="1" stop-color="white" stop-opacity="0"/>
</linearGradient>
<linearGradient id="paint2_linear" x1="12.5" y1="22.7891" x2="12.5" y2="50" gradientUnits="userSpaceOnUse">
<stop stop-color="#9C60B8"/>
<stop offset="1" stop-color="white" stop-opacity="0"/>
</linearGradient>
<linearGradient id="paint3_linear" x1="25" y1="42.8571" x2="25" y2="22.4489" gradientUnits="userSpaceOnUse">
<stop stop-color="#9C60B8"/>
<stop offset="1" stop-color="white" stop-opacity="0"/>
</linearGradient>
</defs>
</svg>
